<svg xmlns="http://www.w3.org/2000/svg" viewBox="0 0 512 512">
  <defs>
    <radialGradient id="bg" cx="50%" cy="42%" r="62%">
      <stop offset="0" stop-color="#2f6df2"/>
      <stop offset="1" stop-color="#1d4ed8"/>
    </radialGradient>
    <linearGradient id="hair" x1="0" y1="0" x2="1" y2="1">
      <stop offset="0" stop-color="#17223d"/>
      <stop offset="1" stop-color="#41557e"/>
    </linearGradient>
  </defs>
  <circle cx="256" cy="256" r="246" fill="url(#bg)" stroke="#064236" stroke-width="12"/>
  <circle cx="256" cy="245" r="198" fill="none" stroke="#fff" stroke-width="8" opacity=".92"/>
  <path d="M138 434c18-78 57-118 118-118s101 40 118 118z" fill="#f8fbff"/>
  <path d="M170 196c2-92 45-142 88-142s85 50 88 142l15 188c-35 29-69 43-103 43s-69-14-104-43z" fill="url(#hair)"/>
  <path d="M175 206c6-62 38-97 81-97s75 35 81 97c-14 63-42 95-81 95s-67-32-81-95z" fill="#f3c7b6"/>
  <path d="M190 177c29-10 55-27 78-51 18 31 38 50 59 57-17-48-41-72-72-72-34 0-56 22-65 66z" fill="#24334f"/>
  <ellipse cx="216" cy="225" rx="10" ry="8" fill="#20304c"/>
  <ellipse cx="296" cy="225" rx="10" ry="8" fill="#20304c"/>
  <path d="M238 259c12 10 25 10 38 0" fill="none" stroke="#b55f64" stroke-width="5" stroke-linecap="round"/>
  <path d="M228 206c-16-5-31-4-45 5M284 206c16-5 31-4 45 5" fill="none" stroke="#17223d" stroke-width="7" stroke-linecap="round"/>
  <path d="M204 341h104l16 93H188z" fill="#f8fbff"/>
  <text x="256" y="390" text-anchor="middle" font-family="Arial, sans-serif" font-size="34" font-weight="700" fill="#9aa3b7">ROMA</text>
  <text x="256" y="418" text-anchor="middle" font-family="Arial, sans-serif" font-size="16" fill="#4b5563">Accountant of CK Group</text>
  <path d="M145 270c-12 30-13 60-2 89" fill="none" stroke="#eef4ff" stroke-width="18" stroke-linecap="round"/>
  <path d="M126 265l45 53" fill="none" stroke="#dfe8f8" stroke-width="8" stroke-linecap="round"/>
</svg>
